<svg width="50" height="50" viewBox="0 0 50 50" fill="none" xmlns="http://www.w3.org/2000/svg">
<path opacity="0.1" fill-rule="evenodd" clip-rule="evenodd" d="M25 7.14286C20.264 7.14286 15.722 9.02423 12.3731 12.3731C9.02423 15.722 7.14286 20.264 7.14286 25C7.14286 29.736 9.02423 34.278 12.3731 37.6269C15.722 40.9758 20.264 42.8571 25 42.8571C29.736 42.8571 34.278 40.9758 37.6269 37.6269C40.9758 34.278 42.8571 29.736 42.8571 25C42.8571 20.264 40.9758 15.722 37.6269 12.3731C34.278 9.02423 29.736 7.14286 25 7.14286ZM0 25C0 11.1929 11.1929 0 25 0C38.8071 0 50 11.1929 50 25C50 38.8071 38.8071 50 25 50C11.1929 50 0 38.8071 0 25Z" fill="#333333"/>
<path fill-rule="evenodd" clip-rule="evenodd" d="M24.3727 7.11468C19.9615 7.10437 15.7189 8.87554 12.5397 12.0546C11.881 12.6877 11.0096 13.0266 10.1129 12.9984C9.21628 12.9701 8.36615 12.577 7.74559 11.9035C7.12502 11.2301 6.78364 10.3303 6.79495 9.39784C6.80626 8.46535 7.16934 7.57478 7.80604 6.91784C12.2589 2.4699 18.1974 -0.0098451 24.3727 2.93776e-05C25.2803 2.93776e-05 26.1507 0.374818 26.7924 1.04195C27.4342 1.70907 27.7947 2.61389 27.7947 3.55735C27.7947 4.50081 27.4342 5.40563 26.7924 6.07276C26.1507 6.73989 25.2803 7.11468 24.3727 7.11468Z" fill="#333333"/>
</svg>
