<svg xmlns="http://www.w3.org/2000/svg" width="256" height="256" viewBox="0 0 100 100"><rect width="100" height="100" rx="20" fill="#6668b8"></rect><path fill="#fff" d="M44.36 58.60L44.36 59.82Q44.36 60.99 43.96 62.33Q43.55 63.68 42.64 64.83Q41.72 65.97 40.26 66.74Q38.79 67.51 36.67 67.51L36.67 67.51L12.57 67.51Q11.89 67.51 11.30 67.27Q10.72 67.02 10.29 66.60Q9.86 66.17 9.62 65.58Q9.38 65.00 9.38 64.31L9.38 64.31L9.38 35.70Q9.38 35.04 9.62 34.45Q9.86 33.87 10.29 33.43Q10.72 32.99 11.30 32.75Q11.89 32.50 12.57 32.50L12.57 32.50L33.81 32.50Q34.99 32.50 36.33 32.92Q37.67 33.33 38.83 34.25Q39.99 35.16 40.76 36.63Q41.53 38.09 41.53 40.22L41.53 40.22L41.53 41.41Q41.53 43.10 40.97 45.04Q40.41 46.98 39.16 48.71L39.16 48.71Q40.23 49.37 41.17 50.30Q42.11 51.23 42.82 52.45Q43.53 53.67 43.95 55.21Q44.36 56.74 44.36 58.60L44.36 58.60ZM38.01 59.77L38.01 58.60Q38.01 57.35 37.62 56.37Q37.23 55.38 36.52 54.67Q35.82 53.96 34.81 53.58Q33.81 53.20 32.57 53.20L32.57 53.20L18.26 53.20L18.26 46.81L29.71 46.81Q30.96 46.81 31.96 46.43Q32.96 46.05 33.67 45.34Q34.38 44.63 34.75 43.65Q35.13 42.66 35.13 41.41L35.13 41.41L35.13 40.22Q35.13 38.85 33.81 38.85L33.81 38.85L15.72 38.85L15.72 61.16L36.67 61.16Q36.84 61.16 37.08 61.14Q37.33 61.11 37.52 60.99Q37.72 60.87 37.87 60.58Q38.01 60.28 38.01 59.77L38.01 59.77ZM90.63 35.21L90.63 67.51L84.23 67.51L84.23 46.66L72.97 66.46Q72.56 67.22 71.81 67.61Q71.07 68.00 70.21 68.00L70.21 68.00Q69.38 68.00 68.66 67.61Q67.94 67.22 67.53 66.46L67.53 66.46L56.23 46.66L56.23 67.51L49.88 67.51L49.88 35.21Q49.88 34.11 50.52 33.26Q51.17 32.40 52.22 32.11L52.22 32.11Q52.73 31.99 53.25 32.02Q53.76 32.06 54.24 32.24Q54.71 32.43 55.10 32.76Q55.49 33.09 55.76 33.55L55.76 33.55L70.21 58.67L84.67 33.55Q85.23 32.62 86.22 32.23Q87.21 31.84 88.28 32.11L88.28 32.11Q89.31 32.40 89.97 33.26Q90.63 34.11 90.63 35.21L90.63 35.21Z"></path></svg>