<svg width="430" height="117" viewBox="0 0 430 117" fill="none" xmlns="http://www.w3.org/2000/svg">
<g filter="url(#filter0_d_261_1196)">
<path d="M430 0H0V95C24.4526 99.677 42.929 88.1053 67.9467 90.0062C81.0958 91.0053 87.2099 97.2647 100.407 97.6749C119.512 98.2687 127.982 87.6501 146.851 85.1628C165.906 82.651 177.964 80.2536 196.291 85.1628C211.899 89.3439 214.985 102.172 231.248 104.133C252.387 106.681 259.691 88.3884 280.688 85.1628C296.207 82.7788 305.579 82.9588 321.139 85.1628C337.979 87.5482 338.587 92.017 355.5 90C376.237 87.5271 380.159 77.8103 401 76C412 75 417 91.5 430 95V0Z" fill="#6668B8"/>
</g>
<g filter="url(#filter1_d_261_1196)">
<path d="M0 75V0H430V75C430 75 412.962 75 399 80.5C386 85.6212 359.737 73.4995 339 75.9715C322.086 77.9877 322.839 90.3515 306 87.967C290.44 85.7638 291.519 66.591 275.999 68.9741C255.003 72.1985 226.138 94.5126 204.999 91.9655C188.736 90.0059 188.108 73.1536 172.5 68.9741C154.172 64.0667 147.055 81.9574 127.999 84.4683C109.13 86.9547 116.104 79.0641 96.9991 78.4706C83.8018 78.0605 69.1491 97.9624 56 96.9636C30.9822 95.0634 24.8959 75 0 75Z" fill="#E0F2FA"/>
</g>
<defs>
<filter id="filter0_d_261_1196" x="-8" y="-4" width="446" height="120.375" filterUnits="userSpaceOnUse" color-interpolation-filters="sRGB">
<feFlood flood-opacity="0" result="BackgroundImageFix"/>
<feColorMatrix in="SourceAlpha" type="matrix" values="0 0 0 0 0 0 0 0 0 0 0 0 0 0 0 0 0 0 127 0" result="hardAlpha"/>
<feOffset dy="4"/>
<feGaussianBlur stdDeviation="4"/>
<feComposite in2="hardAlpha" operator="out"/>
<feColorMatrix type="matrix" values="0 0 0 0 0 0 0 0 0 0 0 0 0 0 0 0 0 0 0.25 0"/>
<feBlend mode="normal" in2="BackgroundImageFix" result="effect1_dropShadow_261_1196"/>
<feBlend mode="normal" in="SourceGraphic" in2="effect1_dropShadow_261_1196" result="shape"/>
</filter>
<filter id="filter1_d_261_1196" x="-8" y="-4" width="446" height="113" filterUnits="userSpaceOnUse" color-interpolation-filters="sRGB">
<feFlood flood-opacity="0" result="BackgroundImageFix"/>
<feColorMatrix in="SourceAlpha" type="matrix" values="0 0 0 0 0 0 0 0 0 0 0 0 0 0 0 0 0 0 127 0" result="hardAlpha"/>
<feOffset dy="4"/>
<feGaussianBlur stdDeviation="4"/>
<feComposite in2="hardAlpha" operator="out"/>
<feColorMatrix type="matrix" values="0 0 0 0 0 0 0 0 0 0 0 0 0 0 0 0 0 0 0.25 0"/>
<feBlend mode="normal" in2="BackgroundImageFix" result="effect1_dropShadow_261_1196"/>
<feBlend mode="normal" in="SourceGraphic" in2="effect1_dropShadow_261_1196" result="shape"/>
</filter>
</defs>
</svg>
