<svg width="30" height="30" viewBox="0 0 30 30" fill="none" xmlns="http://www.w3.org/2000/svg">
<path d="M21.5 2H8.5C4.91015 2 2 4.91015 2 8.5V21.5C2 25.0898 4.91015 28 8.5 28H21.5C25.0898 28 28 25.0898 28 21.5V8.5C28 4.91015 25.0898 2 21.5 2Z" stroke="white" stroke-width="3" stroke-linecap="round" stroke-linejoin="round"/>
<path d="M19.9459 14.2666C20.1002 15.3069 19.9225 16.3694 19.4381 17.3028C18.9537 18.2363 18.1873 18.9933 17.2479 19.4662C16.3085 19.939 15.244 20.1036 14.2057 19.9365C13.1673 19.7694 12.2081 19.2792 11.4645 18.5355C10.7208 17.7919 10.2306 16.8327 10.0635 15.7943C9.89643 14.756 10.061 13.6915 10.5338 12.7521C11.0067 11.8127 11.7637 11.0463 12.6972 10.5619C13.6306 10.0775 14.6931 9.89982 15.7334 10.0541C16.7946 10.2114 17.777 10.7059 18.5355 11.4645C19.2941 12.223 19.7886 13.2054 19.9459 14.2666Z" stroke="white" stroke-width="3" stroke-linecap="round" stroke-linejoin="round"/>
<path d="M22 8H22.01" stroke="white" stroke-width="3" stroke-linecap="round" stroke-linejoin="round"/>
</svg>
