<svg width="63" height="56" viewBox="0 0 63 56" fill="none" xmlns="http://www.w3.org/2000/svg">
<path d="M55.2641 29.804L31.5264 53L7.78867 29.804C6.22295 28.3008 4.98966 26.4939 4.16645 24.4973C3.34325 22.5007 2.94796 20.3575 3.00549 18.2027C3.06301 16.048 3.57211 13.9283 4.50071 11.9772C5.42931 10.0261 6.7573 8.2858 8.40106 6.86595C10.0448 5.44611 11.9687 4.37744 14.0517 3.72726C16.1346 3.07707 18.3314 2.85945 20.5038 3.08809C22.6761 3.31673 24.777 3.98668 26.674 5.05576C28.571 6.12484 30.2232 7.56989 31.5264 9.29991C32.8352 7.58245 34.4893 6.15003 36.385 5.0923C38.2807 4.03456 40.3774 3.37429 42.5436 3.15279C44.7099 2.93129 46.8992 3.15334 48.9744 3.80505C51.0497 4.45675 52.9663 5.52408 54.6043 6.94022C56.2423 8.35637 57.5664 10.0909 58.4937 12.0351C59.4211 13.9794 59.9317 16.0916 59.9936 18.2395C60.0555 20.3874 59.6674 22.5248 58.8536 24.518C58.0398 26.5111 56.8178 28.317 55.2641 29.8228" stroke="#333333" stroke-width="5" stroke-linecap="round" stroke-linejoin="round"/>
</svg>
