<?xml version="1.0" encoding="UTF-8"?>
<svg id="Layer_1" xmlns="http://www.w3.org/2000/svg" version="1.1" viewBox="0 0 595.28 841.89">
  <!-- Generator: Adobe Illustrator 29.8.2, SVG Export Plug-In . SVG Version: 2.1.1 Build 3)  -->
  <defs>
    <style>
      .st0 {
        fill: none;
        stroke: #3e448a;
        stroke-linecap: round;
        stroke-linejoin: round;
        stroke-width: 10.75px;
      }

      .st1 {
        fill: #6768af;
      }

      .st2 {
        fill: #cdd4b3;
      }
    </style>
  </defs>
  <g>
    <path class="st1" d="M578.03,410.59c1.71,104.59-36.79,187.05-119.61,250.61-13.31,10.21-30.08,15.22-39.87,30.38h-245.55c-10.61-17.59-30.32-23.15-46.2-35.44C47.31,594.59,15.21,509.13,14.78,410.59h563.25Z"/>
    <path class="st2" d="M494.52,216.93c58.46,50.73,82.29,117.38,83.54,193.66H14.81c-.05-12.21.37-24.49,1.27-36.71l478.45-156.95Z"/>
    <path class="st1" d="M494.52,216.93L16.05,373.88c10.8-88.12,105.7-150.11,179.73-178.47,10.54-4.04,37.58-14.85,54.43-18.08,73.43-14.08,185.41-6.17,244.32,39.6h0Z"/>
    <path class="st1" d="M251.72,177.5c-16.35,5.2-22.09,6.64-39.24,13.29h0c-17.43-14.44-33.3-46.93-3.16-57.59,37.74-13.35,40.2,16.02,42.4,44.3Z"/>
  </g>
  <rect class="st0" x="161.63" y="680.83" width="265.23" height="10.75"/>
</svg>