<svg width="40" height="55" viewBox="0 0 40 55" fill="none" xmlns="http://www.w3.org/2000/svg">
<path d="M19.9847 25.9697C19.6914 25.9405 19.3395 25.9405 19.017 25.9697C12.0376 25.7355 6.49512 20.0263 6.49512 12.9995C6.49512 5.82636 12.3016 0 19.5155 0C26.7002 0 32.536 5.82636 32.536 12.9995C32.5067 20.0263 26.9642 25.7355 19.9847 25.9697Z" fill="white"/>
<path d="M5.32258 33.0184C-1.77419 37.7615 -1.77419 45.4909 5.32258 50.2047C13.3871 55.5919 26.6129 55.5919 34.6774 50.2047C41.7742 45.4617 41.7742 37.7322 34.6774 33.0184C26.6422 27.6605 13.4164 27.6605 5.32258 33.0184Z" fill="white"/>
</svg>
