<svg width="54" height="60" viewBox="0 0 54 60" fill="none" xmlns="http://www.w3.org/2000/svg">
<path d="M51.8409 43.5391C50.0178 32.4825 44.3423 24.2492 39.4084 19.4132C37.9725 18.006 37.2548 17.3024 35.6689 16.6512C34.0831 16 32.72 16 29.9939 16H24.0061C21.28 16 19.917 16 18.3312 16.6512C16.7454 17.3024 16.0275 18.006 14.5918 19.4132C9.65784 24.2492 3.98225 32.4825 2.15908 43.5391C0.802576 51.7655 8.33131 58 16.7453 58H37.2548C45.6687 58 53.1976 51.7655 51.8409 43.5391Z" stroke="#333333" stroke-width="4" stroke-linecap="round" stroke-linejoin="round"/>
<path d="M13.7185 8.84004C13.1409 7.99922 12.3036 6.85797 14.0332 6.59774C15.811 6.33023 17.657 7.54719 19.4639 7.52219C21.0986 7.49956 21.9314 6.77453 22.8249 5.73934C23.7657 4.64928 25.2226 2 27 2C28.7774 2 30.2343 4.64928 31.1751 5.73934C32.0686 6.77453 32.9013 7.49956 34.5359 7.52219C36.343 7.54719 38.1891 6.33023 39.9668 6.59774C41.6964 6.85797 40.8592 7.99922 40.2815 8.84004L37.6694 12.6418C36.5522 14.2681 35.9936 15.0812 34.8243 15.5406C33.6553 16 32.1444 16 29.123 16H24.877C21.8556 16 20.3447 16 19.1756 15.5406C18.0065 15.0812 17.4478 14.2681 16.3305 12.6418L13.7185 8.84004Z" stroke="#333333" stroke-width="4" stroke-linejoin="round"/>
<path d="M31.3656 32.5026C30.771 30.2223 27.7449 28.1646 24.1124 29.704C20.4799 31.2431 19.9029 36.196 25.3975 36.7223C27.8807 36.96 29.4999 36.4463 30.9822 37.8997C32.4647 39.3529 32.74 43.3946 28.9505 44.4837C25.161 45.5729 21.4086 43.8711 21 41.4543M26.4568 27V29.1726M26.4568 44.8189V47" stroke="#333333" stroke-width="4" stroke-linecap="round" stroke-linejoin="round"/>
</svg>
