<svg width="50" height="50" viewBox="0 0 50 50" fill="none" xmlns="http://www.w3.org/2000/svg">
<path d="M21.9386 12.5409C23.0667 12.7666 23.7983 13.8642 23.5725 14.9924L22.9597 18.0556H29.8217L30.5981 14.175C30.8239 13.0468 31.9214 12.3152 33.0497 12.5409C34.1778 12.7666 34.9094 13.8642 34.6836 14.9924L34.0708 18.0556H36.8056C37.9561 18.0556 38.8889 18.9883 38.8889 20.1389C38.8889 21.2894 37.9561 22.2222 36.8056 22.2222H33.2372L32.1258 27.7778H35.4167C36.5672 27.7778 37.5 28.7106 37.5 29.8611C37.5 31.0117 36.5672 31.9444 35.4167 31.9444H31.2922L30.5156 35.8264C30.2897 36.9547 29.1922 37.6861 28.0639 37.4606C26.9356 37.2347 26.2042 36.1372 26.4297 35.0089L27.0428 31.9444H20.1811L19.4044 35.8264C19.1786 36.9547 18.081 37.6861 16.9528 37.4606C15.8246 37.2347 15.0929 36.1372 15.3187 35.0089L15.9318 31.9444H13.1944C12.0439 31.9444 11.1111 31.0117 11.1111 29.8611C11.1111 28.7106 12.0439 27.7778 13.1944 27.7778H16.7654L17.8769 22.2222H14.5833C13.4327 22.2222 12.5 21.2894 12.5 20.1389C12.5 18.9883 13.4327 18.0556 14.5833 18.0556H18.7105L19.4869 14.175C19.7128 13.0468 20.8103 12.3152 21.9386 12.5409ZM21.0147 27.7778H27.8764L28.9881 22.2222H22.1261L21.0147 27.7778ZM0 9.02778C0 4.04186 4.04186 0 9.02778 0H40.9722C45.9581 0 50 4.04186 50 9.02778V40.9722C50 45.9581 45.9581 50 40.9722 50H9.02778C4.04186 50 0 45.9581 0 40.9722V9.02778ZM9.02778 4.16667C6.34306 4.16667 4.16667 6.34306 4.16667 9.02778V40.9722C4.16667 43.6569 6.34306 45.8333 9.02778 45.8333H40.9722C43.6569 45.8333 45.8333 43.6569 45.8333 40.9722V9.02778C45.8333 6.34306 43.6569 4.16667 40.9722 4.16667H9.02778Z" fill="#333333"/>
</svg>
