<svg width="55" height="55" viewBox="0 0 55 55" fill="none" xmlns="http://www.w3.org/2000/svg">
<path d="M17.8223 41.5913C21.714 44.5558 26.5725 46.3158 31.8421 46.3158C44.6319 46.3158 55 35.9477 55 23.1579C55 10.3681 44.6319 0 31.8421 0C19.0523 0 8.68422 10.3681 8.68422 23.1579C8.68422 28.5907 10.5551 33.5868 13.6878 37.5366L0.873641 50.0329C-0.270937 51.1491 -0.293806 52.9818 0.822404 54.1264C1.93861 55.2709 3.77127 55.2938 4.91585 54.1776L17.8223 41.5913ZM14.4737 23.1579C14.4737 13.5656 22.2498 5.78947 31.8421 5.78947C41.4344 5.78947 49.2105 13.5656 49.2105 23.1579C49.2105 32.7502 41.4344 40.5263 31.8421 40.5263C22.2498 40.5263 14.4737 32.7502 14.4737 23.1579Z" fill="white"/>
</svg>
