<svg width="49" height="60" viewBox="0 0 49 60" fill="none" xmlns="http://www.w3.org/2000/svg">
<path d="M24.5 10.3448C19.6544 10.3448 14.9175 11.8009 10.8885 14.529C6.85954 17.2571 3.71931 21.1347 1.86496 25.6713C0.0106155 30.208 -0.474566 35.1999 0.470772 40.016C1.41611 44.8321 3.74951 49.256 7.17589 52.7282C10.6023 56.2004 14.9678 58.565 19.7203 59.5229C24.4728 60.4809 29.399 59.9892 33.8757 58.1101C38.3525 56.231 42.1789 53.0488 44.871 48.9659C47.5631 44.883 49 40.0828 49 35.1724C48.9926 28.59 46.4089 22.2794 41.8159 17.625C37.2229 12.9705 30.9955 10.3524 24.5 10.3448ZM24.5 53.7931C20.8658 53.7931 17.3132 52.701 14.2914 50.6549C11.2697 48.6089 8.91448 45.7007 7.52372 42.2982C6.13296 38.8958 5.76908 35.1518 6.47808 31.5397C7.18708 27.9276 8.93713 24.6097 11.5069 22.0056C14.0767 19.4014 17.3508 17.628 20.9152 16.9095C24.4796 16.191 28.1742 16.5598 31.5318 17.9691C34.8894 19.3785 37.7592 21.7652 39.7783 24.8273C41.7973 27.8895 42.875 31.4896 42.875 35.1724C42.8696 40.1092 40.9319 44.8423 37.4871 48.3332C34.0423 51.824 29.3717 53.7876 24.5 53.7931ZM33.8126 24.7009C34.0981 24.9892 34.3246 25.3318 34.4792 25.709C34.6337 26.0862 34.7133 26.4907 34.7133 26.8991C34.7133 27.3076 34.6337 27.712 34.4792 28.0893C34.3246 28.4665 34.0981 28.8091 33.8126 29.0974L26.6667 36.3388C26.0914 36.9218 25.3111 37.2493 24.4975 37.2493C23.6838 37.2493 22.9035 36.9218 22.3282 36.3388C21.7529 35.7558 21.4296 34.965 21.4296 34.1405C21.4296 33.316 21.7529 32.5253 22.3282 31.9422L29.474 24.7009C29.7585 24.4115 30.0966 24.182 30.4689 24.0253C30.8411 23.8687 31.2402 23.7881 31.6433 23.7881C32.0464 23.7881 32.4455 23.8687 32.8177 24.0253C33.19 24.182 33.528 24.4115 33.8126 24.7009ZM15.3125 3.10345C15.3125 2.28036 15.6352 1.49099 16.2095 0.908979C16.7838 0.326969 17.5628 0 18.375 0H30.625C31.4372 1.22649e-08 32.2162 0.326969 32.7905 0.908979C33.3648 1.49099 33.6875 2.28036 33.6875 3.10345C33.6875 3.92653 33.3648 4.71591 32.7905 5.29792C32.2162 5.87993 31.4372 6.2069 30.625 6.2069H18.375C17.5628 6.2069 16.7838 5.87993 16.2095 5.29792C15.6352 4.71591 15.3125 3.92653 15.3125 3.10345Z" fill="#333333"/>
</svg>
